<svg xmlns="http://www.w3.org/2000/svg" viewBox="0 0 104.4 153.69"><defs><style>.cls-1{fill:#d0b252;}.cls-2,.cls-3{fill:#4b4f75;}.cls-3{font-size:36px;font-family:Madeline;}.cls-4{letter-spacing:-0.02em;}.cls-5{letter-spacing:0em;}.cls-6{letter-spacing:-0.02em;}</style></defs><title>logo</title><g id="OBJECTS"><path class="cls-1" d="M389.2,59.34H359.92l-8.47,11.89L375,93.7l22.62-22.51Zm-14.64,5.78,2.65,3.72h-5.3Zm3.87,8-3.56,11.11-4.05-11.11Zm2.9-5.77-2.65-3.72H384Zm-13.54,0-2.66-3.72h5.31Zm-4.12,1.53h-5.31L361,65.12Zm2.63,4.24L369.9,83l-10.36-9.87Zm16.58,0h6.86l-10.07,10Zm2.57-4.24,2.65-3.72,2.66,3.72Z" transform="translate(-322.35 -59.34)"/><path class="cls-1" d="M335.23,110.08l0,0a35,35,0,0,0,2,5.67A34.66,34.66,0,0,1,335.23,110.08Z" transform="translate(-322.35 -59.34)"/><path class="cls-1" d="M419.59,130.19a44.56,44.56,0,0,0-76.35-31.25,21.72,21.72,0,0,0,3.39,9,36.08,36.08,0,0,1,64.47,22.29c0,1.13-.05,2.25-.16,3.35-.69,6.33-5,8.28-9.21,5.21a30.79,30.79,0,0,1,5.12,14.84,28.82,28.82,0,0,1-.59,8.37A44.47,44.47,0,0,0,419.59,130.19Z" transform="translate(-322.35 -59.34)"/><path class="cls-2" d="M388.75,134.62c-11.1-6.37-24.88-12-36.76-21a23.45,23.45,0,0,1-5.36-5.72,21.72,21.72,0,0,1-3.39-9c-.76-5.54.88-10.72,4.51-13.33-8.85,3.29-11,20.25-3.11,30.64,9.93,13.09,29.59,21.27,38.71,26.67,13.42,8,7.62,23.38-8.35,23.38a36.14,36.14,0,0,1-35-45.14,41.77,41.77,0,0,1-2.73-5.06c-.05-.1-.09-.21-.14-.31a35,35,0,0,1-2-5.67,26.87,26.87,0,0,1-.85-8.88,37.74,37.74,0,0,0-1.83,15.42A44.57,44.57,0,0,0,375,174.78C401.37,174.78,408.41,145.9,388.75,134.62Z" transform="translate(-322.35 -59.34)"/><text class="cls-3" transform="translate(0 143.15)"><tspan class="cls-4">L</tspan><tspan class="cls-5" x="16.24" y="0">umie</tspan><tspan class="cls-6" x="77.18" y="0">r</tspan><tspan x="90.32" y="0">e</tspan></text></g></svg>